<svg xmlns="http://www.w3.org/2000/svg" fill="none" viewBox="0 0 99 45"><g filter="url(#a)"><path fill="url(#b)" d="M88.254 12.252a4 4 0 0 1 4 4v12a4 4 0 0 1-4 4h-44a4 4 0 0 1-4-4v-1.756l-2.586-2.586a2 2 0 0 1 0-2.83l2.586-2.585v-2.243a4 4 0 0 1 4-4h44Z"/><path fill="#241E2A" d="M49.109 17.516c1.296 0 2.304.384 3.048 1.152.648.672.972 1.512.972 2.508 0 .84-.276 1.62-.804 2.34-.54.696-1.152 1.044-1.824 1.044-.504 0-.792-.252-.864-.756-.36.516-.84.78-1.416.78-.528 0-.96-.18-1.296-.54-.336-.36-.492-.804-.492-1.344 0-.84.264-1.584.792-2.232.516-.66 1.14-.984 1.86-.984.528 0 .9.276 1.104.84l.168-.612h1.008l-.828 2.976c-.12.408-.168.672-.168.792 0 .168.084.252.276.252.348 0 .696-.228 1.032-.672.396-.516.6-1.14.6-1.872 0-.768-.276-1.428-.816-1.956-.6-.576-1.404-.864-2.412-.864-1.08 0-1.956.348-2.616 1.044-.66.684-.984 1.56-.984 2.64 0 1.188.336 2.088 1.032 2.712.636.564 1.536.852 2.712.852.792 0 1.476-.132 2.04-.384.516-.252.924-.6 1.236-1.032h1.068a4.05 4.05 0 0 1-1.848 1.704 6.028 6.028 0 0 1-2.496.516c-1.512 0-2.7-.396-3.552-1.188-.852-.792-1.272-1.872-1.272-3.216 0-1.248.408-2.304 1.248-3.144.888-.912 2.052-1.356 3.492-1.356Zm.168 2.94c-.468 0-.876.228-1.224.696a2.53 2.53 0 0 0-.528 1.596c0 .288.06.516.192.684.12.168.324.252.588.252.24 0 .48-.096.72-.288.264-.204.432-.456.528-.768l.24-.888c.096-.336.144-.552.144-.624a.615.615 0 0 0-.192-.456.603.603 0 0 0-.468-.204Zm8.163-2.772h1.488l3.3 8.568h-1.404l-.804-2.208h-3.684l-.804 2.208H54.14l3.3-8.568Zm-.708 5.28h2.892l-1.416-3.876h-.048l-1.428 3.876Zm8.794-3.084c.816 0 1.44.324 1.896.996v-.828h1.272v5.796c0 1.968-.972 2.952-2.892 2.952-.864 0-1.524-.168-1.98-.492-.456-.336-.732-.84-.852-1.524h1.272c.072.36.216.624.456.78.228.144.6.228 1.104.228 1.08 0 1.62-.588 1.62-1.752v-.96c-.456.684-1.08 1.032-1.896 1.032-.84 0-1.524-.288-2.04-.852-.528-.564-.78-1.308-.78-2.244 0-.936.252-1.68.78-2.256.516-.588 1.2-.876 2.04-.876Zm.192 1.032c-.54 0-.96.18-1.248.564-.312.36-.456.876-.456 1.536 0 .6.12 1.08.36 1.428.276.408.72.624 1.344.624.54 0 .96-.18 1.272-.54.288-.372.444-.876.444-1.512 0-.648-.156-1.164-.444-1.536-.312-.384-.732-.564-1.272-.564Zm7.04-1.032c1.007 0 1.787.336 2.315 1.032.48.624.732 1.488.744 2.592h-4.704c.048.6.204 1.068.492 1.392.288.312.684.48 1.188.48.444 0 .804-.108 1.08-.312.216-.168.396-.444.564-.804h1.272c-.144.576-.42 1.068-.852 1.452-.54.468-1.224.708-2.052.708-.912 0-1.644-.288-2.172-.852-.576-.6-.864-1.404-.864-2.424 0-.924.264-1.692.816-2.316.528-.636 1.26-.948 2.172-.948Zm.035 1.044c-.48 0-.852.132-1.14.42-.264.276-.444.672-.516 1.2h3.348c-.12-1.08-.684-1.62-1.692-1.62Zm7.254-1.044c1.536 0 2.316.84 2.316 2.544v3.828H81.09v-3.72c0-1.056-.492-1.584-1.452-1.584-.36 0-.684.12-.948.384-.288.288-.468.684-.516 1.188v3.732h-1.272v-6.204h1.272v.768c.24-.312.516-.54.828-.696a2.16 2.16 0 0 1 1.044-.24Zm5.654-1.836v2.004h1.416v1.056H85.7v3.6c0 .168.036.288.108.372.072.072.18.12.336.12h.816v1.056h-1.02c-.528 0-.924-.144-1.164-.42-.24-.264-.348-.636-.348-1.128v-3.6h-1.152v-1.056h1.152v-1.476l1.272-.528Z"/></g><g filter="url(#c)"><path fill="#fff" d="M18.882 12.253c.4-.012.884.261.998.632.167.544.103 1.506.102 2.075v4.333l-.003 1.354c0 .252-.002.497.008.751-.008.29.248.603.543.628.86.072.739-.834.737-1.358l-.004-1.805c-.002-.547-.08-1.197.295-1.638a1.06 1.06 0 0 1 .936-.359c.374.055.692.31.835.67.129.33.095 1.015.095 1.397l-.003 2.393c0 .368-.066 1.227.131 1.496a.64.64 0 0 0 .423.255.639.639 0 0 0 .466-.12c.347-.284.274-.88.273-1.294l-.005-1.567c-.002-.602-.095-1.346.432-1.744.595-.45 1.428-.16 1.652.552.058.186.038.703.038.912v2.338c-.001.331-.015.672.002 1 .011.24.172.48.371.598.335.2.827-.043.905-.42.048-.231.03-.536.029-.775l-.004-1.33c-.002-.594-.077-1.248.44-1.663a1.025 1.025 0 0 1 1.476.19.99.99 0 0 1 .185.475c.03.26.016.819.015 1.095v4.562c0 .814.023 1.475-.08 2.282-.125.948-.441 1.963-1.087 2.684-.957 1.067-2.53 1.318-3.876 1.392-.322.018-.73.002-1.051.005-1.694.02-3.625-.201-4.901-1.469-.474-.47-.968-.993-1.442-1.482l-2.759-2.83-1.7-1.737c-.268-.275-.635-.602-.869-.921-.773-1.055.556-2.41 1.59-1.778.354.216 1.02.96 1.347 1.29l1.551 1.544a.52.52 0 0 0 .9-.368v-8.131l-.002-1.975c-.002-.911-.163-1.962 1.011-2.14Z"/><path stroke-width="1.238" stroke="url(#d)" d="M18.864 11.634c.337-.01.675.097.947.263.267.164.546.432.66.807.112.364.137.82.141 1.202.005.361-.01.829-.01 1.053l-.001 4.335-.003 1.354c0 .257-.002.487.008.727v.021l.001.003a.098.098 0 0 0 .007.01l.009-.001h.001c.018-.066.029-.164.03-.304.001-.067 0-.136-.002-.21l-.004-.225-.004-1.804c-.001-.218-.022-.594.01-.92.032-.347.13-.765.433-1.121a1.678 1.678 0 0 1 1.5-.57c.523.078.97.398 1.222.851l.095.202.001.004c.108.276.13.629.138.886.008.27 0 .575 0 .736l-.003 2.395c0 .245-.017.47-.009.766.004.134.013.244.028.326 0 .008.002.015.003.02a.679.679 0 0 0 .03-.146c.02-.192.003-.359.003-.628l-.004-1.569c0-.24-.027-.666.023-1.033.054-.397.208-.869.654-1.206.955-.724 2.27-.236 2.615.86.036.115.05.24.057.326.008.098.01.203.012.3.002.176-.002.4-.002.472v2.339l-.006.506c-.001.158-.001.308.006.462 0-.004.002.013.02.043.008.012.019.02.026.028l.008-.004v-.002c.013-.07.018-.15.018-.246l-.003-.383-.004-1.33c0-.244-.023-.643.033-.997.061-.391.225-.82.639-1.151a1.644 1.644 0 0 1 2.625.872l.039.206v.002c.034.306.018.93.018 1.164v4.561c0 .792.024 1.504-.086 2.36v.003c-.132 1.007-.475 2.163-1.24 3.015-1.14 1.273-2.956 1.524-4.303 1.598-.332.018-.813.003-1.077.006-1.71.02-3.875-.19-5.345-1.649-.478-.475-.984-1.01-1.449-1.49v-.001l-2.758-2.827V26.9l-1.699-1.736c-.22-.225-.657-.623-.926-.989-.599-.817-.358-1.75.163-2.308.511-.548 1.418-.87 2.25-.363.252.154.559.451.8.695.13.131.258.266.371.385.115.121.213.222.288.298l1.395 1.39v-1.737l.002-6.167-.003-1.975c0-.176-.01-.484-.008-.703a3.3 3.3 0 0 1 .094-.802c.075-.28.213-.572.473-.81.26-.239.592-.378.979-.437l.037-.006h.037Z"/></g><defs><linearGradient gradientUnits="userSpaceOnUse" y2="29.252" x2="50.426" y1="5.752" x1="38.426" id="b"><stop stop-color="#FEFFFF"/><stop stop-color="#07EEE5" offset="1"/></linearGradient><linearGradient gradientUnits="userSpaceOnUse" y2="22.624" x2="19.121" y1="11.675" x1="16.754" id="d"><stop stop-color="#EFFEFE"/><stop stop-color="#2DFBF3" offset="1"/></linearGradient><filter color-interpolation-filters="sRGB" filterUnits="userSpaceOnUse" height="33.35" width="68.522" y="5.577" x="30.407" id="a"><feFlood result="BackgroundImageFix" flood-opacity="0"/><feColorMatrix result="hardAlpha" values="0 0 0 0 0 0 0 0 0 0 0 0 0 0 0 0 0 0 127 0" in="SourceAlpha"/><feOffset/><feGaussianBlur stdDeviation=".954"/><feColorMatrix values="0 0 0 0 0.0313726 0 0 0 0 0.490196 0 0 0 0 0.482353 0 0 0 1 0"/><feBlend result="effect1_dropShadow_6775_48935" in2="BackgroundImageFix"/><feColorMatrix result="hardAlpha" values="0 0 0 0 0 0 0 0 0 0 0 0 0 0 0 0 0 0 127 0" in="SourceAlpha"/><feOffset/><feGaussianBlur stdDeviation="3.338"/><feColorMatrix values="0 0 0 0 0.0313726 0 0 0 0 0.490196 0 0 0 0 0.482353 0 0 0 1 0"/><feBlend result="effect2_dropShadow_6775_48935" in2="effect1_dropShadow_6775_48935"/><feBlend result="shape" in2="effect2_dropShadow_6775_48935" in="SourceGraphic"/></filter><filter color-interpolation-filters="sRGB" filterUnits="userSpaceOnUse" height="44.505" width="42.507" y="0" x="0" id="c"><feFlood result="BackgroundImageFix" flood-opacity="0"/><feColorMatrix result="hardAlpha" values="0 0 0 0 0 0 0 0 0 0 0 0 0 0 0 0 0 0 127 0" in="SourceAlpha"/><feOffset/><feGaussianBlur stdDeviation=".393"/><feColorMatrix values="0 0 0 0 0.0313726 0 0 0 0 0.490196 0 0 0 0 0.482353 0 0 0 1 0"/><feBlend result="effect1_dropShadow_6775_48935" in2="BackgroundImageFix"/><feColorMatrix result="hardAlpha" values="0 0 0 0 0 0 0 0 0 0 0 0 0 0 0 0 0 0 127 0" in="SourceAlpha"/><feOffset/><feGaussianBlur stdDeviation=".787"/><feColorMatrix values="0 0 0 0 0.0313726 0 0 0 0 0.490196 0 0 0 0 0.482353 0 0 0 1 0"/><feBlend result="effect2_dropShadow_6775_48935" in2="effect1_dropShadow_6775_48935"/><feColorMatrix result="hardAlpha" values="0 0 0 0 0 0 0 0 0 0 0 0 0 0 0 0 0 0 127 0" in="SourceAlpha"/><feOffset/><feGaussianBlur stdDeviation="2.754"/><feColorMatrix values="0 0 0 0 0.0313726 0 0 0 0 0.490196 0 0 0 0 0.482353 0 0 0 1 0"/><feBlend result="effect3_dropShadow_6775_48935" in2="effect2_dropShadow_6775_48935"/><feColorMatrix result="hardAlpha" values="0 0 0 0 0 0 0 0 0 0 0 0 0 0 0 0 0 0 127 0" in="SourceAlpha"/><feOffset/><feGaussianBlur stdDeviation="5.507"/><feColorMatrix values="0 0 0 0 0.0313726 0 0 0 0 0.490196 0 0 0 0 0.482353 0 0 0 1 0"/><feBlend result="effect4_dropShadow_6775_48935" in2="effect3_dropShadow_6775_48935"/><feBlend result="shape" in2="effect4_dropShadow_6775_48935" in="SourceGraphic"/></filter></defs></svg>