<svg viewBox="0 0 24 24" fill="none" xmlns="http://www.w3.org/2000/svg"><g clip-path="url(#a)"><path d="M0 0h24v24H0z" fill="url(#b)" fill-opacity=".12"/><path d="M0 0h24v24H0z" fill="url(#c)" fill-opacity=".02"/><g filter="url(#d)"><path d="M9.554 12.291c.45-.125.803-.477.928-.928l.478-1.72c.185-.668 1.133-.668 1.318 0l.478 1.72c.125.45.477.803.928.928l1.72.478c.668.185.668 1.133 0 1.318l-1.72.478c-.45.125-.803.477-.928.928l-.478 1.72c-.185.668-1.133.668-1.318 0l-.478-1.72a1.333 1.333 0 0 0-.928-.928l-1.72-.478c-.668-.185-.668-1.133 0-1.318l1.72-.478Z" fill="#fff" fill-opacity=".32"/></g><g filter="url(#e)"><path d="M9.554 12.291c.45-.125.803-.477.928-.928l.478-1.72c.185-.668 1.133-.668 1.318 0l.478 1.72c.125.45.477.803.928.928l1.72.478c.668.185.668 1.133 0 1.318l-1.72.478c-.45.125-.803.477-.928.928l-.478 1.72c-.185.668-1.133.668-1.318 0l-.478-1.72a1.333 1.333 0 0 0-.928-.928l-1.72-.478c-.668-.185-.668-1.133 0-1.318l1.72-.478Z" fill="#fff" fill-opacity=".64"/></g><path d="M9.554 12.291c.45-.125.803-.477.928-.928l.478-1.72c.185-.668 1.133-.668 1.318 0l.478 1.72c.125.45.477.803.928.928l1.72.478c.668.185.668 1.133 0 1.318l-1.72.478c-.45.125-.803.477-.928.928l-.478 1.72c-.185.668-1.133.668-1.318 0l-.478-1.72a1.333 1.333 0 0 0-.928-.928l-1.72-.478c-.668-.185-.668-1.133 0-1.318l1.72-.478Z" fill="#fff"/><g filter="url(#f)"><path d="M16.19 8.451c.45-.125.803-.477.928-.928l.251-.904c.124-.446.755-.446.88 0l.25.904c.126.45.478.803.928.928l.905.251c.445.124.445.756 0 .88l-.905.25c-.45.126-.802.478-.928.928l-.25.905c-.125.445-.756.445-.88 0l-.251-.905a1.333 1.333 0 0 0-.928-.927l-.905-.252c-.445-.123-.445-.755 0-.879l.905-.25Z" fill="#28FFEF" fill-opacity=".32"/></g><g style="mix-blend-mode:lighten" filter="url(#g)"><path d="M16.19 8.451c.45-.125.803-.477.928-.928l.251-.904c.124-.446.755-.446.88 0l.25.904c.126.45.478.803.928.928l.905.251c.445.124.445.756 0 .88l-.905.25c-.45.126-.802.478-.928.928l-.25.905c-.125.445-.756.445-.88 0l-.251-.905a1.333 1.333 0 0 0-.928-.927l-.905-.252c-.445-.123-.445-.755 0-.879l.905-.25Z" fill="#28FFEF" fill-opacity=".64"/></g><path d="M16.19 8.451c.45-.125.803-.477.928-.928l.251-.904c.124-.446.755-.446.88 0l.25.904c.126.45.478.803.928.928l.905.251c.445.124.445.756 0 .88l-.905.25c-.45.126-.802.478-.928.928l-.25.905c-.125.445-.756.445-.88 0l-.251-.905a1.333 1.333 0 0 0-.928-.927l-.905-.252c-.445-.123-.445-.755 0-.879l.905-.25Z" fill="#28FFEF"/></g><defs><filter id="d" x="-.667" y="1.142" width="24.571" height="24.571" filterUnits="userSpaceOnUse" color-interpolation-filters="sRGB"><feFlood flood-opacity="0" result="BackgroundImageFix"/><feBlend in="SourceGraphic" in2="BackgroundImageFix" result="shape"/><feGaussianBlur stdDeviation="4" result="effect1_foregroundBlur_662_11678"/></filter><filter id="e" x="1.333" y="3.142" width="20.571" height="20.571" filterUnits="userSpaceOnUse" color-interpolation-filters="sRGB"><feFlood flood-opacity="0" result="BackgroundImageFix"/><feBlend in="SourceGraphic" in2="BackgroundImageFix" result="shape"/><feGaussianBlur stdDeviation="3" result="effect1_foregroundBlur_662_11678"/></filter><filter id="f" x="6.951" y="-1.715" width="21.714" height="21.714" filterUnits="userSpaceOnUse" color-interpolation-filters="sRGB"><feFlood flood-opacity="0" result="BackgroundImageFix"/><feBlend in="SourceGraphic" in2="BackgroundImageFix" result="shape"/><feGaussianBlur stdDeviation="4" result="effect1_foregroundBlur_662_11678"/></filter><filter id="g" x="8.951" y=".285" width="17.714" height="17.714" filterUnits="userSpaceOnUse" color-interpolation-filters="sRGB"><feFlood flood-opacity="0" result="BackgroundImageFix"/><feBlend in="SourceGraphic" in2="BackgroundImageFix" result="shape"/><feGaussianBlur stdDeviation="3" result="effect1_foregroundBlur_662_11678"/></filter><radialGradient id="b" cx="0" cy="0" r="1" gradientUnits="userSpaceOnUse" gradientTransform="matrix(10.5 0 0 11.0622 13.5 17.5)"><stop/><stop offset="1" stop-opacity="0"/></radialGradient><radialGradient id="c" cx="0" cy="0" r="1" gradientUnits="userSpaceOnUse" gradientTransform="matrix(8.49999 -7.99999 6.33692 6.73298 15.5 15)"><stop stop-color="#06302D"/><stop offset="1" stop-color="#06302D" stop-opacity="0"/></radialGradient><clipPath id="a"><path d="M0 0h24v24H0z" fill="#fff"/></clipPath></defs></svg>