<svg xmlns="http://www.w3.org/2000/svg" fill="none" viewBox="0 0 16 16"><path fill="#fff" d="M7.977 2a3.5 3.5 0 1 1 0 7 5 5 0 0 0-4.98 4.545.5.5 0 0 1-.995-.09 6.006 6.006 0 0 1 3.946-5.103A3.5 3.5 0 0 1 7.978 2Zm0 1a2.5 2.5 0 1 0 0 5 2.5 2.5 0 0 0 0-5Z" clip-rule="evenodd" fill-rule="evenodd"/><path fill="#28FFEF" d="M9.26 9.993a.835.835 0 0 1 1.41-.008l.062.12 1.383 3.193a.496.496 0 0 1-.002.397.5.5 0 0 1-.463.313h-1.163a.5.5 0 0 1 0-1h.412l-.93-2.149-1.19 2.831a.5.5 0 0 1-.922-.387l1.343-3.19.06-.12ZM13.517 11.023a.5.5 0 0 1 .5.5v1.975a.5.5 0 0 1-1 0v-1.975a.5.5 0 0 1 .5-.5ZM13.517 9.586a.5.5 0 0 1 .5.5v.016a.5.5 0 0 1-1 0v-.016a.5.5 0 0 1 .5-.5Z"/></svg>