<svg xmlns="http://www.w3.org/2000/svg" fill="none" viewBox="0 0 16 16"><path fill="#fff" d="M6.569 3.055C6.785 3.003 7.022 3 7.657 3H9.5c.708 0 1.21 0 1.601.032.386.032.622.092.807.186a2 2 0 0 1 .874.874c.094.185.154.42.186.807C13 5.29 13 5.792 13 6.5a.5.5 0 0 0 1 0v-.022c0-.681 0-1.223-.036-1.66-.036-.448-.113-.83-.291-1.18a3 3 0 0 0-1.311-1.311c-.35-.178-.732-.255-1.18-.291C10.746 2 10.204 2 9.523 2H7.596c-.553 0-.915 0-1.26.083a3 3 0 0 0-.868.36c-.303.185-.559.44-.95.832l-.043.043-1.157 1.157-.043.043c-.391.391-.647.647-.833.95a3 3 0 0 0-.36.867C2 6.681 2 7.043 2 7.595v1.927c0 .681 0 1.223.036 1.66.036.448.113.83.291 1.18a3 3 0 0 0 1.311 1.311c.35.178.731.255 1.18.291.437.036.979.036 1.66.036H8.5a.5.5 0 1 0 0-1h-2c-.708 0-1.21 0-1.601-.032-.386-.032-.622-.092-.807-.186a2 2 0 0 1-.874-.874c-.094-.185-.154-.42-.186-.807C3 10.71 3 10.208 3 9.5V7.657c0-.635.003-.872.055-1.088a2 2 0 0 1 .24-.578c.116-.19.28-.36.73-.809l1.157-1.157c.45-.45.618-.614.809-.73a2 2 0 0 1 .578-.24Z" clip-rule="evenodd" fill-rule="evenodd"/><path fill="#28FFEF" d="M10.518 10.214a1 1 0 0 0 .696-.696l.325-1.167c.13-.468.793-.468.922 0l.325 1.167a1 1 0 0 0 .696.696l1.167.325c.468.13.468.793 0 .922l-1.167.325a1 1 0 0 0-.696.696l-.325 1.167c-.13.468-.793.468-.922 0l-.325-1.167a1 1 0 0 0-.696-.696l-1.167-.325c-.468-.13-.468-.793 0-.922l1.167-.325Z"/><path fill="#fff" d="M5.5 5.7V3h1v2.716c0 .126 0 .249-.008.353a1.01 1.01 0 0 1-.101.385 1 1 0 0 1-.437.437 1.01 1.01 0 0 1-.385.1A4.59 4.59 0 0 1 5.216 7H2.5V6h2.7a4.096 4.096 0 0 0 .294-.006v-.006c.006-.059.006-.14.006-.288Z" clip-rule="evenodd" fill-rule="evenodd"/></svg>