<svg viewBox="0 0 48 48" fill="none" xmlns="http://www.w3.org/2000/svg"><path data-follow-fill="#fff" d="M27.6 6c5.04 0 7.56 0 9.486.98a9.001 9.001 0 0 1 3.934 3.934C42 12.84 42 15.36 42 20.4v7.2c0 5.04 0 7.56-.98 9.486a9.001 9.001 0 0 1-3.934 3.934C35.16 42 32.64 42 27.6 42h-7.2c-5.04 0-7.56 0-9.486-.98a9.001 9.001 0 0 1-3.934-3.934C6 35.16 6 32.64 6 27.6v-7.2c0-5.04 0-7.56.98-9.486a9.002 9.002 0 0 1 3.934-3.934C12.84 6 15.36 6 20.4 6h7.2Zm-7.2 3c-2.57 0-4.316.002-5.667.112-1.315.108-1.987.303-2.457.542a6 6 0 0 0-2.622 2.622c-.239.47-.434 1.142-.542 2.457C9.002 16.083 9 17.831 9 20.4v7.2c0 2.57.002 4.316.112 5.667.108 1.315.303 1.987.542 2.457a6 6 0 0 0 2.622 2.622c.47.239 1.142.434 2.457.542 1.35.11 3.098.112 5.667.112h7.2c2.57 0 4.316-.002 5.667-.112 1.315-.108 1.987-.303 2.457-.542a6 6 0 0 0 2.622-2.622c.239-.47.434-1.142.542-2.457.11-1.35.112-3.098.112-5.667v-7.2c0-2.57-.002-4.316-.112-5.667-.108-1.315-.303-1.987-.542-2.457a6 6 0 0 0-2.622-2.622c-.47-.239-1.142-.434-2.457-.542C31.917 9.002 30.169 9 27.6 9h-7.2ZM15 21a1.5 1.5 0 0 1 1.5 1.5V33a1.5 1.5 0 0 1-3 0V22.5A1.5 1.5 0 0 1 15 21Zm9-6a1.5 1.5 0 0 1 1.5 1.5V33a1.5 1.5 0 0 1-3 0V16.5A1.5 1.5 0 0 1 24 15Zm9 4.5a1.5 1.5 0 0 1 1.5 1.5v12a1.5 1.5 0 0 1-3 0V21a1.5 1.5 0 0 1 1.5-1.5Z" fill="#fff"/></svg>