<svg xmlns="http://www.w3.org/2000/svg" fill="none" viewBox="0 0 40 32"><g clip-path="url(#a)"><g filter="url(#b)" opacity=".6"><path fill="url(#c)" d="M21.175 11.017c.681.037 1.226.214 1.216.397-.01.183-.57.3-1.252.264l-4.316-.233c-.681-.037-1.226-.215-1.216-.397.01-.183.57-.301 1.251-.264l4.317.233Z"/></g><g filter="url(#d)" opacity=".6"><path fill="url(#e)" d="M19.774 16.52c.45.024.81.14.803.26-.006.118-.376.195-.826.17l-2.854-.153c-.45-.024-.81-.14-.803-.26.006-.119.376-.195.827-.171l2.853.154Z"/></g><g filter="url(#f)" opacity=".8"><path stroke-linecap="round" stroke-width=".653" stroke="url(#g)" d="m10.2 12.374-.163-4.263a2.286 2.286 0 0 1 2.145-2.369l12.932-.785"/></g><path stroke-linecap="round" stroke-width=".653" stroke="url(#h)" d="m10.2 12.374-.163-4.263a2.286 2.286 0 0 1 2.145-2.369l12.932-.785" opacity=".8"/><path fill-opacity=".06" fill="url(#i)" d="M29.43 4.04A3.265 3.265 0 0 1 32.7 7.297l.027 16.078c-.838.444-1.711.856-2.61 1.238l-.027-16.331a1.633 1.633 0 0 0-1.636-1.63l-15.299.03a1.633 1.633 0 0 0-1.63 1.636l.035 17.455c-.933.006-1.81-.023-2.612-.086L8.913 7.345a3.265 3.265 0 0 1 3.259-3.272L29.43 4.04Z" data-figma-bg-blur-radius="1.959"/><path stroke-linecap="round" stroke-width=".261" stroke="url(#j)" d="M29.43 4.04A3.265 3.265 0 0 1 32.7 7.297l.027 16a.13.13 0 0 1-.07.115c-.76.4-1.549.774-2.359 1.123a.13.13 0 0 1-.181-.12L30.09 8.284a1.633 1.633 0 0 0-1.636-1.63l-15.299.03a1.633 1.633 0 0 0-1.63 1.636l.035 17.325a.13.13 0 0 1-.13.13c-.839.003-1.63-.023-2.362-.077a.13.13 0 0 1-.12-.13L8.913 7.345a3.265 3.265 0 0 1 3.259-3.272L29.43 4.04Z"/><path stroke-linecap="round" stroke-width=".261" stroke="url(#k)" d="M29.43 4.04A3.265 3.265 0 0 1 32.7 7.297l.027 16a.13.13 0 0 1-.07.115c-.76.4-1.549.774-2.359 1.123a.13.13 0 0 1-.181-.12L30.09 8.284a1.633 1.633 0 0 0-1.636-1.63l-15.299.03a1.633 1.633 0 0 0-1.63 1.636l.035 17.325a.13.13 0 0 1-.13.13c-.839.003-1.63-.023-2.362-.077a.13.13 0 0 1-.12-.13L8.913 7.345a3.265 3.265 0 0 1 3.259-3.272L29.43 4.04Z"/><path stroke-linecap="round" stroke-width=".261" stroke="url(#l)" d="M8.912 7.345a3.265 3.265 0 0 1 3.26-3.272"/><path fill-opacity=".06" fill="url(#m)" d="M15.129 11.555a1.306 1.306 0 0 1 1.308-1.29l8.847.014a1.306 1.306 0 0 1-.005 2.612l-8.846-.014a1.306 1.306 0 0 1-1.304-1.322Z" data-figma-bg-blur-radius="1.959"/><path stroke-linecap="round" stroke-width=".261" stroke="url(#n)" d="M15.129 11.555a1.306 1.306 0 0 1 1.308-1.29l8.847.014a1.306 1.306 0 0 1-.005 2.612l-8.846-.014a1.306 1.306 0 0 1-1.304-1.322Z"/><path fill-opacity=".06" fill="url(#o)" d="M15.73 17.204a1.305 1.305 0 0 1 1.272-1.29l4.934-.125a1.305 1.305 0 1 1 .067 2.61l-4.935.125a1.305 1.305 0 0 1-1.338-1.32Z" data-figma-bg-blur-radius="1.959"/><path stroke-linecap="round" stroke-width=".261" stroke="url(#p)" d="M15.73 17.204a1.305 1.305 0 0 1 1.272-1.29l4.934-.125a1.305 1.305 0 1 1 .067 2.61l-4.935.125a1.305 1.305 0 0 1-1.338-1.32Z"/><path stroke-linecap="round" stroke-width=".342" stroke="url(#q)" d="M15.483 25.903c1.347.095 2.777.146 4.261.146 2.592 0 5.017-.156 7.125-.428"/><path data-figma-gradient-fill="{&amp;quot;type&amp;quot;:&amp;quot;GRADIENT_ANGULAR&amp;quot;,&amp;quot;stops&amp;quot;:[{&amp;quot;color&amp;quot;:{&amp;quot;r&amp;quot;:0.80000001192092896,&amp;quot;g&amp;quot;:0.86666667461395264,&amp;quot;b&amp;quot;:1.0,&amp;quot;a&amp;quot;:0.89999997615814209},&amp;quot;position&amp;quot;:0.062827140092849731},{&amp;quot;color&amp;quot;:{&amp;quot;r&amp;quot;:0.80000001192092896,&amp;quot;g&amp;quot;:0.86666667461395264,&amp;quot;b&amp;quot;:1.0,&amp;quot;a&amp;quot;:0.89999997615814209},&amp;quot;position&amp;quot;:0.24669113755226135},{&amp;quot;color&amp;quot;:{&amp;quot;r&amp;quot;:0.80000001192092896,&amp;quot;g&amp;quot;:0.86666667461395264,&amp;quot;b&amp;quot;:1.0,&amp;quot;a&amp;quot;:0.89999997615814209},&amp;quot;position&amp;quot;:0.50428056716918945},{&amp;quot;color&amp;quot;:{&amp;quot;r&amp;quot;:0.80000001192092896,&amp;quot;g&amp;quot;:0.86666667461395264,&amp;quot;b&amp;quot;:1.0,&amp;quot;a&amp;quot;:0.10000000149011612},&amp;quot;position&amp;quot;:0.64434128999710083},{&amp;quot;color&amp;quot;:{&amp;quot;r&amp;quot;:0.80000001192092896,&amp;quot;g&amp;quot;:0.86666667461395264,&amp;quot;b&amp;quot;:1.0,&amp;quot;a&amp;quot;:0.10000000149011612},&amp;quot;position&amp;quot;:0.87303972244262695}],&amp;quot;stopsVar&amp;quot;:[{&amp;quot;color&amp;quot;:{&amp;quot;r&amp;quot;:0.80000001192092896,&amp;quot;g&amp;quot;:0.86666667461395264,&amp;quot;b&amp;quot;:1.0,&amp;quot;a&amp;quot;:0.89999997615814209},&amp;quot;position&amp;quot;:0.062827140092849731},{&amp;quot;color&amp;quot;:{&amp;quot;r&amp;quot;:0.80000001192092896,&amp;quot;g&amp;quot;:0.86666667461395264,&amp;quot;b&amp;quot;:1.0,&amp;quot;a&amp;quot;:0.89999997615814209},&amp;quot;position&amp;quot;:0.24669113755226135},{&amp;quot;color&amp;quot;:{&amp;quot;r&amp;quot;:0.80000001192092896,&amp;quot;g&amp;quot;:0.86666667461395264,&amp;quot;b&amp;quot;:1.0,&amp;quot;a&amp;quot;:0.89999997615814209},&amp;quot;position&amp;quot;:0.50428056716918945},{&amp;quot;color&amp;quot;:{&amp;quot;r&amp;quot;:0.80000001192092896,&amp;quot;g&amp;quot;:0.86666667461395264,&amp;quot;b&amp;quot;:1.0,&amp;quot;a&amp;quot;:0.10000000149011612},&amp;quot;position&amp;quot;:0.64434128999710083},{&amp;quot;color&amp;quot;:{&amp;quot;r&amp;quot;:0.80000001192092896,&amp;quot;g&amp;quot;:0.86666667461395264,&amp;quot;b&amp;quot;:1.0,&amp;quot;a&amp;quot;:0.10000000149011612},&amp;quot;position&amp;quot;:0.87303972244262695}],&amp;quot;transform&amp;quot;:{&amp;quot;m00&amp;quot;:39.484676361083984,&amp;quot;m01&amp;quot;:0.70782852172851562,&amp;quot;m02&amp;quot;:-0.27531579136848450,&amp;quot;m10&amp;quot;:-1.9426808357238770,&amp;quot;m11&amp;quot;:14.571428298950195,&amp;quot;m12&amp;quot;:14.790850639343262},&amp;quot;opacity&amp;quot;:0.059999998658895493,&amp;quot;blendMode&amp;quot;:&amp;quot;NORMAL&amp;quot;,&amp;quot;visible&amp;quot;:true}" d="M32.907 15.083c1.758.453 3.289 1.049 4.422 1.801 1.107.736 2.067 1.787 2.14 3.187.072 1.4-.773 2.543-1.798 3.39-1.049.867-2.509 1.619-4.211 2.252-3.42 1.272-8.11 2.174-13.27 2.442-5.158.268-9.915-.142-13.449-1.052-1.759-.454-3.29-1.05-4.423-1.803-1.107-.735-2.067-1.785-2.14-3.186-.072-1.4.773-2.543 1.798-3.39 1.05-.867 2.51-1.619 4.212-2.252a30.575 30.575 0 0 1 2.594-.827v2.716a26.49 26.49 0 0 0-1.684.559c-1.562.581-2.722 1.21-3.458 1.818-.76.627-.863 1.051-.853 1.24.01.19.157.602.977 1.146.794.529 2.014 1.033 3.628 1.449 3.213.828 7.694 1.232 12.663.973 4.97-.258 9.384-1.124 12.494-2.28 1.562-.582 2.723-1.211 3.458-1.819.76-.627.863-1.051.853-1.24-.01-.19-.157-.602-.977-1.146-.699-.465-1.728-.912-3.065-1.296V15.06l.089.023Z" data-figma-bg-blur-radius="1.959"/></g><defs><linearGradient gradientUnits="userSpaceOnUse" y2="11.722" x2="15.952" y1="10.848" x1="15.944" id="c"><stop stop-color="#FF57FF" offset=".095"/><stop stop-color="#A84EFF" offset=".142"/><stop stop-color="#683BFF" offset=".243"/><stop stop-opacity="0" stop-color="#683BFF" offset=".618"/></linearGradient><linearGradient gradientUnits="userSpaceOnUse" y2="16.977" x2="16.321" y1="16.407" x1="16.317" id="e"><stop stop-color="#FF57FF" offset=".095"/><stop stop-color="#A84EFF" offset=".142"/><stop stop-color="#683BFF" offset=".243"/><stop stop-opacity="0" stop-color="#683BFF" offset=".618"/></linearGradient><linearGradient gradientUnits="userSpaceOnUse" y2="12.886" x2="14.44" y1="6.15" x1="10.124" id="g"><stop stop-color="#FF57FF" offset=".095"/><stop stop-color="#A84EFF" offset=".142"/><stop stop-color="#683BFF" offset=".243"/><stop stop-opacity="0" stop-color="#683BFF" offset=".618"/></linearGradient><linearGradient gradientUnits="userSpaceOnUse" y2="12.886" x2="14.44" y1="6.15" x1="10.124" id="h"><stop stop-color="#FF57FF" offset=".095"/><stop stop-color="#A84EFF" offset=".142"/><stop stop-color="#683BFF" offset=".243"/><stop stop-opacity="0" stop-color="#683BFF" offset=".618"/></linearGradient><linearGradient gradientUnits="userSpaceOnUse" y2="22.081" x2="23.667" y1="3.576" x1="20.955" id="i"><stop stop-opacity=".9" stop-color="#CDF" offset=".69"/><stop stop-opacity=".1" stop-color="#CDF" offset="1"/></linearGradient><linearGradient gradientUnits="userSpaceOnUse" y2="26.102" x2="30.088" y1="1.975" x1="9.612" id="j"><stop stop-color="#FF57FF" offset=".105"/><stop stop-color="#A84EFF" offset=".184"/><stop stop-color="#683BFF" offset=".265"/><stop stop-opacity=".16" stop-color="#61568B" offset=".497"/><stop stop-opacity=".16" stop-color="#61568B" offset=".668"/><stop stop-opacity="0" stop-color="#61568B" offset="1"/></linearGradient><linearGradient gradientUnits="userSpaceOnUse" y2="7.461" x2="8.901" y1="4.194" x1="12.344" id="l"><stop stop-opacity="0" stop-color="#FCD3FF"/><stop stop-color="#FCD3FF" offset=".273"/><stop stop-color="#FCD3FF" offset=".727"/><stop stop-opacity="0" stop-color="#FCD3FF" offset=".992"/></linearGradient><linearGradient gradientUnits="userSpaceOnUse" y2="14.477" x2="16.572" y1="10.863" x1="15.869" id="m"><stop stop-opacity=".9" stop-color="#CDF" offset=".69"/><stop stop-opacity=".1" stop-color="#CDF" offset="1"/></linearGradient><linearGradient gradientUnits="userSpaceOnUse" y2="12.866" x2="16.17" y1="9.96" x1="15.879" id="n"><stop stop-color="#FF57FF"/><stop stop-color="#A84EFF" offset=".175"/><stop stop-color="#683BFF" offset=".314"/><stop stop-opacity=".61" stop-color="#605D6B" offset=".389"/><stop stop-opacity=".3" stop-color="#4A4656" offset=".668"/><stop stop-opacity="0" stop-color="#41394B" offset="1"/></linearGradient><linearGradient gradientUnits="userSpaceOnUse" y2="20.024" x2="17.374" y1="16.422" x1="16.221" id="o"><stop stop-opacity=".9" stop-color="#CDF" offset=".69"/><stop stop-opacity=".1" stop-color="#CDF" offset="1"/></linearGradient><linearGradient gradientUnits="userSpaceOnUse" y2="17.11" x2="17.86" y1="15.28" x1="17.639" id="p"><stop stop-color="#FF57FF" offset=".033"/><stop stop-color="#A84EFF" offset=".114"/><stop stop-color="#683BFF" offset=".314"/><stop stop-opacity=".61" stop-color="#61568B" offset=".471"/><stop stop-opacity=".3" stop-color="#4A4656" offset=".832"/><stop stop-opacity=".2" stop-color="#41394B" offset="1"/></linearGradient><linearGradient gradientUnits="userSpaceOnUse" y2="22.381" x2="16.912" y1="26.121" x1="15.733" id="q"><stop stop-opacity=".1" stop-color="#6B3CFF"/><stop stop-opacity=".4" stop-color="#FF58FF" offset=".389"/><stop stop-opacity=".1" stop-color="#6B3CFF" offset="1"/></linearGradient><filter color-interpolation-filters="sRGB" filterUnits="userSpaceOnUse" height="3.52" width="9.395" y="9.471" x="14.301" id="b"><feFlood result="BackgroundImageFix" flood-opacity="0"/><feBlend result="shape" in2="BackgroundImageFix" in="SourceGraphic"/><feGaussianBlur result="effect1_foregroundBlur_7242_49877" stdDeviation=".653"/></filter><filter color-interpolation-filters="sRGB" filterUnits="userSpaceOnUse" height="3.206" width="7.096" y="15.055" x="14.788" id="d"><feFlood result="BackgroundImageFix" flood-opacity="0"/><feBlend result="shape" in2="BackgroundImageFix" in="SourceGraphic"/><feGaussianBlur result="effect1_foregroundBlur_7242_49877" stdDeviation=".653"/></filter><filter color-interpolation-filters="sRGB" filterUnits="userSpaceOnUse" height="15.907" width="23.568" y=".712" x="5.791" id="f"><feFlood result="BackgroundImageFix" flood-opacity="0"/><feBlend result="shape" in2="BackgroundImageFix" in="SourceGraphic"/><feGaussianBlur result="effect1_foregroundBlur_7242_49877" stdDeviation="1.959"/></filter><clipPath id="r"><path d="M32.907 15.083c1.758.453 3.289 1.049 4.422 1.801 1.107.736 2.067 1.787 2.14 3.187.072 1.4-.773 2.543-1.798 3.39-1.049.867-2.509 1.619-4.211 2.252-3.42 1.272-8.11 2.174-13.27 2.442-5.158.268-9.915-.142-13.449-1.052-1.759-.454-3.29-1.05-4.423-1.803-1.107-.735-2.067-1.785-2.14-3.186-.072-1.4.773-2.543 1.798-3.39 1.05-.867 2.51-1.619 4.212-2.252a30.575 30.575 0 0 1 2.594-.827v2.716a26.49 26.49 0 0 0-1.684.559c-1.562.581-2.722 1.21-3.458 1.818-.76.627-.863 1.051-.853 1.24.01.19.157.602.977 1.146.794.529 2.014 1.033 3.628 1.449 3.213.828 7.694 1.232 12.663.973 4.97-.258 9.384-1.124 12.494-2.28 1.562-.582 2.723-1.211 3.458-1.819.76-.627.863-1.051.853-1.24-.01-.19-.157-.602-.977-1.146-.699-.465-1.728-.912-3.065-1.296V15.06l.089.023Z" data-figma-bg-blur-radius="1.959"/></clipPath><clipPath id="a"><path fill="#fff" d="M0 0h39.51v32H0z" data-follow-fill="#fff"/></clipPath><radialGradient gradientUnits="userSpaceOnUse" gradientTransform="matrix(4.72478 6.55071 -3.30768 2.32486 12.494 6.876)" r="1" cy="0" cx="0" id="k"><stop stop-color="#FF57FF"/><stop stop-opacity="0" stop-color="#FF57FF" offset="1"/></radialGradient></defs></svg>