<svg xmlns="http://www.w3.org/2000/svg" fill="none" viewBox="0 0 32 32"><g clip-path="url(#a)"><g filter="url(#b)" opacity=".8"><path stroke-linecap="round" stroke-width=".653" stroke="url(#c)" d="M3.565 13.207V10.95c0-1.537-.196-6.116 6.214-6.116 2.061 0 3.5-.131 4.58 1.439"/></g><path stroke-linecap="round" stroke-width=".653" stroke="url(#d)" d="M3.565 13.207V10.95c0-1.537-.196-6.116 6.214-6.116 2.061 0 3.5-.131 4.58 1.439" opacity=".8"/><path fill-opacity=".06" fill="url(#e)" d="M2.285 23.523V9.405c0-3.21 2.624-5.813 5.861-5.813h3.59c1.435 0 2.768.734 3.527 1.942a3.31 3.31 0 0 0 2.778 1.544l7.333.06c2.36.019 4.263 1.921 4.263 4.262v12.123c0 2.782-2.274 5.038-5.08 5.038H7.366c-2.806 0-5.08-2.256-5.08-5.038Zm2.345 0c0 1.498 1.224 2.713 2.735 2.713h17.193c1.51 0 2.735-1.215 2.735-2.713V11.4c0-1.064-.865-1.929-1.938-1.937l-7.334-.06a5.659 5.659 0 0 1-4.748-2.64 1.815 1.815 0 0 0-1.537-.846h-3.59c-1.942 0-3.516 1.562-3.516 3.488v14.118Z" data-figma-bg-blur-radius="1.959"/><mask height="26" width="28" y="3" x="2" maskUnits="userSpaceOnUse" style="mask-type:alpha" id="g"><path fill-opacity=".06" fill="url(#f)" d="M2.285 23.523V9.406c0-3.211 2.624-5.814 5.861-5.814h3.59c1.435 0 2.768.734 3.527 1.942a3.31 3.31 0 0 0 2.778 1.544l7.333.06c2.36.019 4.263 1.922 4.263 4.263v12.122c0 2.783-2.274 5.038-5.08 5.038H7.366c-2.806 0-5.08-2.255-5.08-5.038Zm2.345 0c0 1.498 1.224 2.713 2.735 2.713h17.193c1.51 0 2.735-1.215 2.735-2.713V11.401c0-1.064-.865-1.93-1.938-1.938l-7.334-.06a5.659 5.659 0 0 1-4.748-2.639 1.815 1.815 0 0 0-1.537-.847h-3.59c-1.942 0-3.516 1.562-3.516 3.489v14.117Z" data-figma-bg-blur-radius="2.286"/></mask><g mask="url(#g)"><g filter="url(#h)" opacity=".35"><ellipse fill-opacity=".6" fill="#7358FF" ry=".388" rx="7.351" cy="28.837" cx="15.272"/></g><g filter="url(#i)" opacity=".35"><path fill-opacity=".25" fill="#8762EA" d="M9.618 28.674a62.315 62.315 0 0 0 4.524.163 62.834 62.834 0 0 0 4.524-.163l-.452-.03a62.834 62.834 0 0 0-8.596.03Z"/></g></g><path stroke-linecap="round" stroke-width=".261" stroke="url(#j)" d="M2.285 23.523V9.405c0-3.21 2.624-5.813 5.861-5.813h3.59c1.435 0 2.768.734 3.527 1.942a3.31 3.31 0 0 0 2.778 1.544l7.333.06c2.36.019 4.263 1.921 4.263 4.262v12.123c0 2.782-2.274 5.038-5.08 5.038H7.366c-2.806 0-5.08-2.256-5.08-5.038Zm2.345 0c0 1.498 1.224 2.713 2.735 2.713h17.193c1.51 0 2.735-1.215 2.735-2.713V11.4c0-1.064-.865-1.929-1.938-1.937l-7.334-.06a5.659 5.659 0 0 1-4.748-2.64 1.815 1.815 0 0 0-1.537-.846h-3.59c-1.942 0-3.516 1.562-3.516 3.488v14.118Z"/><path stroke-linecap="round" stroke-width=".261" stroke="url(#k)" d="M2.285 23.523V9.405c0-3.21 2.624-5.813 5.861-5.813h3.59c1.435 0 2.768.734 3.527 1.942a3.31 3.31 0 0 0 2.778 1.544l7.333.06c2.36.019 4.263 1.921 4.263 4.262v12.123c0 2.782-2.274 5.038-5.08 5.038H7.366c-2.806 0-5.08-2.256-5.08-5.038Zm2.345 0c0 1.498 1.224 2.713 2.735 2.713h17.193c1.51 0 2.735-1.215 2.735-2.713V11.4c0-1.064-.865-1.929-1.938-1.937l-7.334-.06a5.659 5.659 0 0 1-4.748-2.64 1.815 1.815 0 0 0-1.537-.846h-3.59c-1.942 0-3.516 1.562-3.516 3.488v14.118Z"/><path stroke-linecap="round" stroke-width=".261" stroke="url(#l)" d="M2.285 9.405c0-3.21 2.624-5.813 5.861-5.813"/><g filter="url(#m)" opacity=".6"><path fill="url(#n)" d="M16.55 20.178c.683 0 1.236.308 1.236.688 0 .38-.553.688-1.236.688h-4.323c-.682 0-1.235-.308-1.235-.688 0-.38.553-.688 1.235-.688h4.323Z"/></g><path fill-opacity=".06" fill="url(#o)" d="M19.352 19.594a1.96 1.96 0 0 1 0 3.919h-6.857a1.96 1.96 0 0 1 0-3.919h6.857Z" data-figma-bg-blur-radius="1.959"/><path stroke-linecap="round" stroke-width=".261" stroke="url(#p)" d="M19.352 19.594a1.96 1.96 0 0 1 0 3.919h-6.857a1.96 1.96 0 0 1 0-3.919h6.857Z"/></g><defs><linearGradient gradientUnits="userSpaceOnUse" y2="18.796" x2="12.627" y1="4.898" x1="4.495" id="c"><stop stop-color="#FF57FF" offset=".046"/><stop stop-opacity=".8" stop-color="#A84EFF" offset=".142"/><stop stop-opacity=".5" stop-color="#683BFF" offset=".234"/><stop stop-opacity="0" stop-color="#683BFF" offset="1"/></linearGradient><linearGradient gradientUnits="userSpaceOnUse" y2="18.796" x2="12.627" y1="4.898" x1="4.495" id="d"><stop stop-color="#FF57FF" offset=".046"/><stop stop-opacity=".8" stop-color="#A84EFF" offset=".142"/><stop stop-opacity=".5" stop-color="#683BFF" offset=".234"/><stop stop-opacity="0" stop-color="#683BFF" offset="1"/></linearGradient><linearGradient gradientUnits="userSpaceOnUse" y2="33.245" x2="26.372" y1="10.077" x1="4.033" id="e"><stop stop-opacity=".9" stop-color="#CDF" offset=".538"/><stop stop-opacity=".9" stop-color="#CDF" offset="1"/></linearGradient><linearGradient gradientUnits="userSpaceOnUse" y2="30.721" x2="26.473" y1="10.078" x1="4.033" id="f"><stop stop-opacity=".9" stop-color="#CDF" offset=".69"/><stop stop-opacity=".1" stop-color="#CDF" offset="1"/></linearGradient><linearGradient gradientUnits="userSpaceOnUse" y2="29.99" x2="25.385" y1="4.636" x1="2.589" id="j"><stop stop-color="#FF57FF" offset=".067"/><stop stop-color="#A84EFF" offset=".184"/><stop stop-color="#683BFF" offset=".265"/><stop stop-opacity=".3" stop-color="#61568B" offset=".422"/><stop stop-opacity=".1" stop-color="#61568B" offset=".668"/><stop stop-opacity=".04" stop-color="#61568B" offset="1"/></linearGradient><linearGradient gradientUnits="userSpaceOnUse" y2="10.601" x2="4.177" y1="3.516" x1="8.284" id="l"><stop stop-opacity="0" stop-color="#FCD3FF"/><stop stop-color="#FCD3FF" offset=".325"/><stop stop-color="#FCD3FF" offset=".609"/><stop stop-opacity="0" stop-color="#FCD3FF" offset=".791"/></linearGradient><linearGradient gradientUnits="userSpaceOnUse" y2="22.202" x2="11.55" y1="20.413" x1="11.318" id="n"><stop stop-color="#FF57FF" offset=".095"/><stop stop-color="#A84EFF" offset=".142"/><stop stop-color="#683BFF" offset=".243"/><stop stop-opacity="0" stop-color="#683BFF" offset=".618"/></linearGradient><linearGradient gradientUnits="userSpaceOnUse" y2="25.519" x2="12.774" y1="20.612" x1="11.225" id="o"><stop stop-opacity=".9" stop-color="#CDF" offset=".69"/><stop stop-opacity=".1" stop-color="#CDF" offset="1"/></linearGradient><linearGradient gradientUnits="userSpaceOnUse" y2="23.414" x2="11.926" y1="19.316" x1="11.223" id="p"><stop stop-color="#FF57FF"/><stop stop-color="#A84EFF" offset=".115"/><stop stop-color="#683BFF" offset=".314"/><stop stop-opacity=".61" stop-color="#605D6B" offset=".389"/><stop stop-opacity=".3" stop-color="#4A4656" offset=".668"/><stop stop-opacity="0" stop-color="#41394B" offset="1"/></linearGradient><filter color-interpolation-filters="sRGB" filterUnits="userSpaceOnUse" height="16.865" width="19.284" y=".586" x="-.681" id="b"><feFlood result="BackgroundImageFix" flood-opacity="0"/><feBlend result="shape" in2="BackgroundImageFix" in="SourceGraphic"/><feGaussianBlur result="effect1_foregroundBlur_7242_49816" stdDeviation="1.959"/></filter><filter color-interpolation-filters="sRGB" filterUnits="userSpaceOnUse" height="3.387" width="17.315" y="27.144" x="6.615" id="h"><feFlood result="BackgroundImageFix" flood-opacity="0"/><feBlend result="shape" in2="BackgroundImageFix" in="SourceGraphic"/><feGaussianBlur result="effect1_foregroundBlur_7242_49816" stdDeviation=".653"/></filter><filter color-interpolation-filters="sRGB" filterUnits="userSpaceOnUse" height=".784" width="9.505" y="28.282" x="9.39" id="i"><feFlood result="BackgroundImageFix" flood-opacity="0"/><feBlend result="shape" in2="BackgroundImageFix" in="SourceGraphic"/><feGaussianBlur result="effect1_foregroundBlur_7242_49816" stdDeviation=".114"/></filter><filter color-interpolation-filters="sRGB" filterUnits="userSpaceOnUse" height="3.988" width="9.405" y="18.872" x="9.686" id="m"><feFlood result="BackgroundImageFix" flood-opacity="0"/><feBlend result="shape" in2="BackgroundImageFix" in="SourceGraphic"/><feGaussianBlur result="effect1_foregroundBlur_7242_49816" stdDeviation=".653"/></filter><radialGradient gradientTransform="matrix(8.64248 7.12436 -.9808 1.1898 5.964 6.694)" gradientUnits="userSpaceOnUse" r="1" cy="0" cx="0" id="k"><stop stop-color="#FF57FF"/><stop stop-opacity="0" stop-color="#FF57FF" offset="1"/></radialGradient><clipPath id="a"><path fill="#fff" d="M0 0h32v32H0z"/></clipPath></defs></svg>